<svg width="155" height="117" viewBox="0 0 155 117" fill="none" xmlns="http://www.w3.org/2000/svg">
<path fill-rule="evenodd" clip-rule="evenodd" d="M73.9408 0.0536798C70.7627 0.435045 64.9731 1.88468 63.9494 2.55597C63.7264 2.69647 64.1078 3.41237 65.437 5.40171C67.1628 7.95057 68.6159 10.6737 69.7725 13.5264C70.4259 15.1901 71.7105 19.5256 71.7105 20.072C71.7105 20.5337 72.2703 20.5359 73.5215 20.072C74.0835 19.8668 75.5398 19.6683 76.9515 19.6037C79.2955 19.4966 79.862 19.5658 83.2162 20.3553C83.6332 20.4556 83.7247 20.2928 84.077 18.8298C85.2534 13.7331 87.4814 8.93841 90.6182 4.75273C91.4122 3.67331 92.0121 2.74554 91.9564 2.68309C91.8047 2.53144 89.4452 1.69957 88.1048 1.3249C84.7595 0.39044 82.6854 0.102745 78.7379 0.0269184C76.53 -0.0154555 74.3712 -0.00653429 73.943 0.0447605L73.9408 0.0536798ZM74.9466 21.1024C73.8315 21.3254 71.6994 22.1171 71.2021 22.4918C70.8631 22.746 70.8876 22.862 71.5031 23.8299C72.4064 25.2729 72.9327 26.6623 73.4055 28.8568C73.6776 30.1258 73.885 30.6588 74.0746 30.5852C75.1138 30.186 78.1625 29.9987 79.9935 30.2217C81.0908 30.3555 82.0721 30.4135 82.1724 30.351C82.2728 30.2886 82.4222 29.711 82.5048 29.0642C82.7448 27.3095 83.2961 25.6117 84.1328 24.0507C84.5365 23.288 84.8665 22.6234 84.8665 22.5721C84.8665 22.3491 82.4758 21.4748 81.1064 21.1849C79.514 20.8459 76.3917 20.7991 74.9421 21.0912L74.9466 21.1024ZM73.827 31.6981C68.9295 32.5589 64.646 34.8137 60.9766 38.4623C56.8978 42.4678 54.397 47.8074 53.9314 53.505L53.7953 55.258L54.5558 55.0974C55.8516 54.8209 60.3543 52.9787 62.3415 51.9104C68.2077 48.716 73.1596 44.0743 76.7263 38.4266C77.0943 37.8423 77.4667 37.3673 77.5559 37.3673C77.6451 37.3673 78.0845 37.9427 78.535 38.6474C83.2318 46.0071 90.6205 51.6718 99.5658 54.7785C100.251 55.0339 100.949 55.2514 101.658 55.4297C102.017 55.4297 101.689 51.4711 101.176 49.5933C99.9472 45.1038 97.9289 41.5645 94.782 38.411C89.327 32.9314 81.3517 30.3823 73.8181 31.6981H73.827ZM76.8222 40.4962C71.5409 48.3256 63.6128 53.9874 54.4934 56.4422C53.6374 56.6876 52.7666 56.8775 51.8862 57.0109C51.1503 57.0109 51.1324 57.3633 51.8149 58.3892C54.141 61.8817 54.7141 67.1271 53.24 71.1817C52.9012 72.124 52.4842 73.0364 51.9933 73.9092C51.6699 74.4244 51.4045 75.0488 51.4045 75.2986C51.4045 75.5484 51.7101 76.9289 52.0736 78.3696C54.7498 88.6888 59.6072 97.4357 66.7506 104.791C68.1511 106.234 69.3844 107.414 69.4893 107.414C69.5941 107.414 69.6833 99.231 69.6833 89.1549V70.894L68.9585 70.6219C64.2015 68.8377 61.5319 66.661 59.5537 62.9366C59.2325 62.3322 59.0474 61.7702 59.1411 61.6854C59.3329 61.5159 62.7964 61.788 64.9999 62.1449C67.9281 62.6199 73.2717 64.2256 74.088 64.8746C74.2954 65.0397 74.3667 66.3845 74.3667 70.2071C74.3667 74.8771 74.3266 75.3923 73.9207 76.1907C73.3832 77.2434 73.3631 77.9057 73.8203 79.6564C74.4515 82.0807 76.0862 84.583 77.5515 85.3702C78.138 85.6825 80.1876 83.4656 81.1711 81.454C82.2104 79.3308 82.4267 77.5377 81.7532 76.6278C81.2848 75.9944 81.2737 75.8138 81.3317 70.3699L81.3919 64.7631L83.176 64.0941C86.6349 62.8174 90.2584 62.0416 93.9368 61.7903C96.5707 61.6074 96.613 61.6364 95.6764 63.425C93.9769 66.7034 91.2761 68.8912 86.5771 70.7981L85.9839 71.0523V89.34C85.9839 99.9647 86.0664 107.628 86.1824 107.628C86.4366 107.628 89.6436 103.939 91.8315 101.129C97.5899 93.7357 101.792 85.2632 103.855 76.891C104.265 75.225 104.276 74.9975 103.973 74.6608C103.19 73.7977 101.997 70.8025 101.647 68.8266C101.054 65.3447 101.749 61.766 103.603 58.7594C104.332 57.5729 104.345 57.0109 103.643 57.0109C103.123 57.0109 98.2902 55.4319 96.4012 54.6491C88.7739 51.4733 82.2929 46.2256 78.8093 40.4003C78.4056 39.7313 77.9997 39.1693 77.9172 39.1693C77.8347 39.1693 77.3441 39.7759 76.84 40.5074L76.8222 40.4962ZM43.8865 86.7953C42.2483 87.5015 40.5117 87.9528 38.7369 88.1335C37.2516 88.2963 35.889 89.0122 35.2065 89.9845C34.7181 90.6826 34.2364 92.5872 34.2342 93.8339C34.2342 95.3616 34.8408 98.3121 35.5834 100.346C35.9425 101.33 36.2012 102.166 36.1611 102.208C35.8399 102.529 31.0316 96.3808 30.6123 95.1006C30.5632 94.9534 30.1663 95.0426 29.5998 95.337C27.9539 96.1778 26.2812 96.4789 23.2838 96.4789C21.0871 96.4789 20.398 96.5525 20.1906 96.8045C19.7066 97.3844 20.0478 97.8839 21.4083 98.5887C23.1924 99.5209 25.7371 100.919 26.4262 101.352C27.7755 102.202 30.8978 104.566 30.7996 104.664C30.7394 104.724 29.6065 104.367 28.2795 103.872C24.0778 102.311 18.9126 100.935 17.1597 100.935C16.3278 100.935 13.685 101.947 10.962 103.31C5.26601 106.158 1.81811 109.28 0.703012 112.628C0.268121 113.924 0.216828 116.308 0.613805 116.827C0.863588 117.153 1.04423 117.077 2.34221 116.085C3.95688 114.851 6.53054 113.48 8.30578 112.904C9.47519 112.583 10.6631 112.332 11.863 112.155C14.1043 111.809 14.4545 111.809 17.4608 112.173C19.2249 112.385 21.5867 112.757 22.7107 113L27.8781 114.115C33.5606 115.349 36.0049 115.645 40.4944 115.648C44.482 115.648 48.0771 115.286 49.3594 114.755C49.8478 114.552 49.7809 114.468 48.1328 113.243C47.2296 112.58 46.3789 111.848 45.5881 111.053C43.9512 109.231 41.8905 106.147 42.1425 105.893C42.1938 105.841 42.8115 106.149 43.5319 106.579C47.7091 109.093 53.6414 111.466 58.6549 112.623C61.9066 113.375 66.4606 113.924 66.0614 113.515C65.3226 113.145 64.5648 112.814 63.7911 112.523C61.1349 111.455 55.9698 108.879 53.9403 107.617C48.7394 104.358 44.9615 100.413 43.61 96.7867C43.0457 95.279 42.5885 92.1032 42.8093 91.2111C42.9632 90.6001 42.9699 90.6023 43.5676 91.6973C44.8366 94.0167 46.0007 95.5511 48.0548 97.6141C49.946 99.5097 52.9478 101.822 54.0295 102.213C54.2525 102.291 53.3604 101.258 52.0714 99.9201C46.9597 94.6189 44.8946 90.6447 45.5435 87.364C45.8112 86.0081 45.693 85.9679 43.891 86.7909L43.8865 86.7953ZM108.154 87.7298C108.154 88.9676 108 89.5296 107.354 90.9056C106.036 93.7157 103.272 97.6475 100.73 100.328C99.519 101.606 100.246 101.327 102.18 99.7707C107.786 95.2612 111.054 90.6714 110.295 88.3721C110.072 87.6674 108.734 86.2222 108.326 86.2244C108.239 86.2244 108.161 86.8935 108.154 87.7298ZM114.042 87.8993C117.998 92.2281 117.755 96.1667 113.259 100.649C109.245 104.664 101.252 108.95 92.3756 111.87C91.1736 112.264 90.2257 112.626 90.2703 112.67C90.4131 112.813 93.1428 112.331 95.5671 111.736C108.685 108.518 117.115 103.343 119.225 97.2104C120.117 94.6211 119.591 90.9011 118.079 89.0657C117.343 88.1736 115.153 87.0139 113.761 86.782L112.885 86.6348L114.042 87.8993ZM124.343 94.5587C124.343 95.2612 125.965 96.6462 127.227 97.0119C127.719 97.1697 128.222 97.2889 128.732 97.3687C128.893 97.3687 129.027 97.4602 129.027 97.5695C129.027 98.1047 122.234 103.571 119.158 105.511C115.494 107.822 121.799 104.789 126.177 102.135C127.263 101.466 128.184 100.937 128.246 100.937C128.347 100.937 130.505 99.5744 133.097 97.8772C134.092 97.2238 134.602 96.7443 134.602 96.461C134.602 96.073 134.428 96.0306 132.762 96.0306C129.914 96.0306 127.515 95.5288 124.734 94.3624C124.457 94.2487 124.343 94.3022 124.343 94.5498V94.5587ZM138.171 101C138.171 101.066 139.045 101.702 140.115 102.413C141.322 103.243 142.461 104.166 143.523 105.174C144.926 106.559 146.813 109.091 146.601 109.305C146.545 109.358 145.852 109.242 145.06 109.046C144.065 108.799 142.587 108.687 140.276 108.685C135.345 108.685 133.621 109.075 119.535 113.426C118.884 113.627 116.223 114.258 113.96 114.751C112.887 114.974 109.414 115.442 108.734 115.442C108.511 115.442 108.48 115.516 108.632 115.665C109.035 116.069 112.76 116.39 115.409 116.252C118.899 116.067 121.654 115.543 128.79 113.701C134.857 112.139 136.665 111.836 140.053 111.832C145.024 111.832 148.934 113.125 152.895 116.102C153.564 116.595 154.219 116.995 154.375 116.995C154.772 116.995 154.741 115.161 154.322 113.781C152.736 108.553 144.85 101.947 139.105 101.033C138.583 100.948 138.157 100.935 138.157 101" fill="url(#paint0_linear_2034_9674)"/>
<defs>
<linearGradient id="paint0_linear_2034_9674" x1="0.344238" y1="57.3062" x2="154.656" y2="57.3062" gradientUnits="userSpaceOnUse">
<stop stop-color="#FF9574"/>
<stop offset="1" stop-color="#FF4C8C"/>
</linearGradient>
</defs>
</svg>
